<svg width="22" height="22" viewBox="0 0 22 22" fill="none" xmlns="http://www.w3.org/2000/svg">
<rect x="0.5" y="0.5" width="21" height="21" rx="10.5" fill="white"/>
<path d="M9.80273 10.0957H10.6465C10.9746 10.0957 11.2461 10.0391 11.4609 9.92578C11.6797 9.8125 11.8418 9.65625 11.9473 9.45703C12.0527 9.25781 12.1055 9.0293 12.1055 8.77148C12.1055 8.50195 12.0566 8.27148 11.959 8.08008C11.8652 7.88477 11.7207 7.73438 11.5254 7.62891C11.334 7.52344 11.0898 7.4707 10.793 7.4707C10.543 7.4707 10.3164 7.52148 10.1133 7.62305C9.91406 7.7207 9.75586 7.86133 9.63867 8.04492C9.52148 8.22461 9.46289 8.43945 9.46289 8.68945H8.04492C8.04492 8.23633 8.16406 7.83398 8.40234 7.48242C8.64062 7.13086 8.96484 6.85547 9.375 6.65625C9.78906 6.45312 10.2539 6.35156 10.7695 6.35156C11.3203 6.35156 11.8008 6.44336 12.2109 6.62695C12.625 6.80664 12.9473 7.07617 13.1777 7.43555C13.4082 7.79492 13.5234 8.24023 13.5234 8.77148C13.5234 9.01367 13.4668 9.25977 13.3535 9.50977C13.2402 9.75977 13.0723 9.98828 12.8496 10.1953C12.627 10.3984 12.3496 10.5645 12.0176 10.6934C11.6855 10.8184 11.3008 10.8809 10.8633 10.8809H9.80273V10.0957ZM9.80273 11.1973V10.4238H10.8633C11.3633 10.4238 11.7891 10.4824 12.1406 10.5996C12.4961 10.7168 12.7852 10.8789 13.0078 11.0859C13.2305 11.2891 13.3926 11.5215 13.4941 11.7832C13.5996 12.0449 13.6523 12.3223 13.6523 12.6152C13.6523 13.0137 13.5801 13.3691 13.4355 13.6816C13.2949 13.9902 13.0938 14.252 12.832 14.4668C12.5703 14.6816 12.2637 14.8438 11.9121 14.9531C11.5645 15.0625 11.1855 15.1172 10.7754 15.1172C10.4082 15.1172 10.0566 15.0664 9.7207 14.9648C9.38477 14.8633 9.08398 14.7129 8.81836 14.5137C8.55273 14.3105 8.3418 14.0586 8.18555 13.7578C8.0332 13.4531 7.95703 13.1016 7.95703 12.7031H9.36914C9.36914 12.957 9.42773 13.1816 9.54492 13.377C9.66602 13.5684 9.83398 13.7188 10.0488 13.8281C10.2676 13.9375 10.5176 13.9922 10.7988 13.9922C11.0957 13.9922 11.3516 13.9395 11.5664 13.834C11.7812 13.7285 11.9453 13.5723 12.0586 13.3652C12.1758 13.1582 12.2344 12.9082 12.2344 12.6152C12.2344 12.2832 12.1699 12.0137 12.041 11.8066C11.9121 11.5996 11.7285 11.4473 11.4902 11.3496C11.252 11.248 10.9707 11.1973 10.6465 11.1973H9.80273Z" fill="#202020"/>
</svg>
