<svg width="20" height="20" viewBox="0 0 20 20" fill="none" xmlns="http://www.w3.org/2000/svg">
<path d="M1.66699 2.5H3.75033L5.41699 14.1667H14.167M14.167 14.1667C13.2465 14.1667 12.5003 14.9129 12.5003 15.8333C12.5003 16.7538 13.2465 17.5 14.167 17.5C15.0875 17.5 15.8337 16.7538 15.8337 15.8333C15.8337 14.9129 15.0875 14.1667 14.167 14.1667ZM5.05984 11.6667H15.0003L17.5003 4.16667H3.98841M9.16699 15.8333C9.16699 16.7538 8.4208 17.5 7.50033 17.5C6.57985 17.5 5.83366 16.7538 5.83366 15.8333C5.83366 14.9129 6.57985 14.1667 7.50033 14.1667C8.4208 14.1667 9.16699 14.9129 9.16699 15.8333Z" stroke="#1C2024" stroke-width="1.25" stroke-linecap="round" stroke-linejoin="round"/>
</svg>
