<svg width="16" height="12" viewBox="0 0 16 12" fill="none" xmlns="http://www.w3.org/2000/svg">
<path d="M14 3.33329L12.6667 11.3333H3.33333L2 3.33329M14 3.33329L10.3333 6.33329L8 2.66663M14 3.33329C14.5523 3.33329 15 2.88558 15 2.33329C15 1.78101 14.5523 1.33329 14 1.33329C13.4477 1.33329 13 1.78101 13 2.33329C13 2.88558 13.4477 3.33329 14 3.33329ZM8 2.66663L5.66667 6.33329L2 3.33329M8 2.66663C8.55228 2.66663 9 2.21891 9 1.66663C9 1.11434 8.55228 0.666626 8 0.666626C7.44772 0.666626 7 1.11434 7 1.66663C7 2.21891 7.44772 2.66663 8 2.66663ZM2 3.33329C2.55228 3.33329 3 2.88558 3 2.33329C3 1.78101 2.55228 1.33329 2 1.33329C1.44772 1.33329 1 1.78101 1 2.33329C1 2.88558 1.44772 3.33329 2 3.33329Z" stroke="#9E6C00" stroke-linecap="round" stroke-linejoin="round"/>
</svg>
