<svg width="13" height="13" viewBox="0 0 13 13" fill="none" xmlns="http://www.w3.org/2000/svg">
<path d="M12.6807 12.6801V8.22652C12.6807 6.03772 12.2095 4.36572 9.65587 4.36572C8.42467 4.36572 7.60387 5.03452 7.26947 5.67292H7.23907V4.56332H4.82227V12.6801H7.34547V8.65212C7.34547 7.58812 7.54307 6.56972 8.85027 6.56972C10.1423 6.56972 10.1575 7.77052 10.1575 8.71292V12.6649H12.6807V12.6801Z" fill="#1C2024"/>
<path d="M0.71875 4.56262H3.24195V12.6794H0.71875V4.56262Z" fill="#1C2024"/>
<path d="M1.97971 0.519653C1.17411 0.519653 0.520508 1.17325 0.520508 1.97885C0.520508 2.78445 1.17411 3.45325 1.97971 3.45325C2.78531 3.45325 3.43891 2.78445 3.43891 1.97885C3.43891 1.17325 2.78531 0.519653 1.97971 0.519653Z" fill="#1C2024"/>
</svg>
