<svg width="116" height="48" viewBox="0 0 116 48" fill="none" xmlns="http://www.w3.org/2000/svg">
<path d="M2.04647 13.9916C3.1512 13.9916 4.05672 14.893 4.05672 15.9927V22.6451H13.4741V15.9927C13.4741 14.893 14.3796 13.9916 15.5206 13.9916C16.6615 13.9916 17.5308 14.893 17.5308 15.9927V34.3455C17.5308 34.67 17.2592 34.9404 16.9332 34.9404H14.0717C13.7458 34.9404 13.4741 34.67 13.4741 34.3455V26.2508H4.05672V34.3274C4.05672 34.6519 3.78506 34.9224 3.45908 34.9224H0.597642C0.271655 34.9224 0 34.6519 0 34.3274V15.9927C0 14.893 0.905518 13.9916 2.04647 13.9916Z" fill="white"/>
<path d="M22.9096 13C24.1954 13 25.2458 14.0456 25.2458 15.3256C25.2458 16.6056 24.1954 17.6513 22.9096 17.6513C21.6237 17.6513 20.5371 16.6056 20.5371 15.3256C20.5371 14.0456 21.5875 13 22.9096 13ZM22.9096 19.382C23.96 19.382 24.8293 20.2474 24.8293 21.293V34.3635C24.8293 34.67 24.5576 34.9404 24.2497 34.9404H21.5151C21.2072 34.9404 20.9355 34.67 20.9355 34.3635V21.293C20.9355 20.2474 21.8048 19.382 22.8915 19.382H22.9096Z" fill="white"/>
<path d="M46.0284 14H53.0371C57.6009 14 59.8647 17.3172 59.8647 20.6164C59.8647 22.9781 58.7237 25.3398 56.4056 26.5116L59.593 32.0102C60.1725 32.9657 59.8284 34.1916 58.8686 34.7685C57.8725 35.3454 56.641 35.0029 56.0796 34.0474L52.1678 27.2508H48.0567V34.3359C48.0567 34.6604 47.7851 34.9308 47.4591 34.9308H44.5976C44.2717 34.9308 44 34.6604 44 34.3359V16.0011C44 14.9014 44.9055 14 46.0465 14H46.0284ZM52.8922 23.4288C54.8843 23.4288 55.8442 22.0226 55.8442 20.6164C55.8442 19.2102 54.8843 17.84 52.8922 17.84H48.0567V23.4288H52.8922Z" fill="white"/>
<path d="M69.7882 19.3544C74.0803 19.3544 77.1591 22.4372 77.1591 26.782C77.1591 28.3144 76.0725 28.693 75.2937 28.693H66.0574C66.5645 30.604 68.1039 31.866 70.0779 31.866C71.2189 31.866 72.1606 31.6857 73.048 31.1448C73.537 30.8744 74.0079 30.7482 74.4063 30.7482C75.4205 30.7482 76.1268 31.5234 76.1268 32.3888C76.1268 33.0198 75.7646 33.6688 74.9858 34.1556C73.5732 35.0209 71.8527 35.3274 70.0779 35.3274C65.4236 35.3274 62.1094 32.0102 62.1094 27.3409C62.1094 22.6716 65.2968 19.3544 69.7701 19.3544H69.7882ZM73.3016 25.9707C72.9937 24.0778 71.6173 22.8338 69.7882 22.8338C67.959 22.8338 66.5102 24.0597 66.0574 25.9707H73.3016Z" fill="white"/>
<path d="M88.8057 20.3639C89.5663 20.8507 89.8923 21.4997 89.8923 22.1307C89.8923 22.996 89.2222 23.7713 88.2624 23.7713C87.864 23.7713 87.4293 23.627 86.9765 23.3746C86.1978 22.978 85.4372 22.7977 84.5679 22.7977C83.6986 22.7977 83.1553 23.2484 83.1553 23.9335C83.1553 26.1149 90.5805 25.0332 90.5805 30.4958C90.5805 33.5245 88.2986 35.3995 84.7127 35.3995C82.9923 35.3995 81.3804 35.1651 80.0765 34.3899C79.2978 33.9031 78.9355 33.2541 78.9355 32.6231C78.9355 31.7578 79.6237 30.9826 80.656 30.9826C81.0545 30.9826 81.5253 31.1268 82.0143 31.3792C82.8836 31.8299 83.7348 31.9561 84.7127 31.9561C86.071 31.9561 86.7592 31.271 86.7592 30.604C86.7592 28.2062 79.334 29.2879 79.334 24.0417C79.334 21.1752 81.3261 19.3363 84.5679 19.3363C86.1254 19.3363 87.6104 19.6067 88.8057 20.3459V20.3639Z" fill="white"/>
<rect x="26.9746" y="27.4747" width="7.35482" height="7.35483" rx="1.07143" fill="white" fill-opacity="0.3"/>
<rect x="30.748" y="23.6038" width="7.54837" height="7.54838" rx="1.07143" fill="white" fill-opacity="0.6"/>
<rect x="34.6191" y="19.8296" width="7.35482" height="7.35483" rx="1.07143" fill="white"/>
</svg>
