<svg width="19" height="18" viewBox="0 0 19 18" fill="none" xmlns="http://www.w3.org/2000/svg">
<path fill-rule="evenodd" clip-rule="evenodd" d="M13.5909 7.36388C13.5909 10.527 11.0267 13.0912 7.86364 13.0912C4.70055 13.0912 2.13636 10.527 2.13636 7.36388C2.13636 4.20079 4.70055 1.63661 7.86364 1.63661C11.0267 1.63661 13.5909 4.20079 13.5909 7.36388ZM12.4599 13.1172C11.2002 14.125 9.60229 14.7275 7.86364 14.7275C3.79681 14.7275 0.5 11.4307 0.5 7.36388C0.5 3.29706 3.79681 0.000244141 7.86364 0.000244141C11.9305 0.000244141 15.2273 3.29706 15.2273 7.36388C15.2273 9.10253 14.6248 10.7004 13.6169 11.9602L18.2604 16.6034C18.5799 16.923 18.5799 17.4411 18.2604 17.7607C17.9409 18.0801 17.4228 18.0801 17.1032 17.7607L12.4599 13.1172Z" fill="#1C2024"/>
</svg>
