<svg width="15" height="12" viewBox="0 0 15 12" fill="none" xmlns="http://www.w3.org/2000/svg">
<path fill-rule="evenodd" clip-rule="evenodd" d="M1.58953 5.22155C5.455 3.64097 8.03258 2.59896 9.32228 2.09551C13.0046 0.658058 13.7698 0.408358 14.2685 0.400112C14.3782 0.398299 14.6235 0.423812 14.7823 0.544796C14.9165 0.646952 14.9534 0.784951 14.971 0.881807C14.9887 0.978662 15.0107 1.1993 14.9932 1.3717C14.7937 3.33946 13.9302 8.1147 13.4909 10.3186C13.3051 11.2512 12.9391 11.5639 12.5848 11.5945C11.8148 11.661 11.23 11.1169 10.4843 10.6581C9.31723 9.9401 8.65793 9.49316 7.52514 8.79256C6.21599 7.98289 7.06466 7.53788 7.81073 6.81062C8.00599 6.62029 11.3987 3.7241 11.4643 3.46137C11.4726 3.42851 11.4802 3.30603 11.4027 3.24135C11.3251 3.17668 11.2107 3.19879 11.1281 3.21638C11.0111 3.24131 9.14673 4.39781 5.53511 6.68587C5.00593 7.02691 4.52661 7.19307 4.09715 7.18436C3.62371 7.17476 2.71301 6.93313 2.03599 6.72659C1.2056 6.47326 0.545629 6.33932 0.603098 5.90909C0.633031 5.685 0.961843 5.45582 1.58953 5.22155Z" fill="#1C2024"/>
</svg>
