<svg width="16" height="12" viewBox="0 0 16 12" fill="none" xmlns="http://www.w3.org/2000/svg">
<path d="M14.8869 2.06526C14.7116 1.41419 14.1983 0.900846 13.5472 0.725558C12.3578 0.400024 7.59997 0.400024 7.59997 0.400024C7.59997 0.400024 2.84216 0.400024 1.65271 0.713038C1.01416 0.888325 0.488301 1.41419 0.313013 2.06526C0 3.25471 0 5.72125 0 5.72125C0 5.72125 0 8.20032 0.313013 9.37725C0.488301 10.0283 1.00164 10.5417 1.65271 10.7169C2.85468 11.0425 7.59997 11.0425 7.59997 11.0425C7.59997 11.0425 12.3578 11.0425 13.5472 10.7295C14.1983 10.5542 14.7116 10.0408 14.8869 9.38977C15.1999 8.20032 15.1999 5.73377 15.1999 5.73377C15.1999 5.73377 15.2125 3.25471 14.8869 2.06526Z" fill="#1C2024"/>
</svg>
